<mxfile host="app.diagrams.net" modified="2021-04-13T09:35:42.904Z" agent="5.0 (Windows NT 10.0; Win64; x64) AppleWebKit/537.36 (KHTML, like Gecko) Chrome/89.0.4389.114 Safari/537.36" etag="VjLZfkUXcF6Xj6TPvb_g" version="14.5.10" type="github" pages="8">
  <diagram id="C2wL3yx2h07klYckwQ0Q" name="Proposed Design">
    <mxGraphModel dx="948" dy="498" grid="1" gridSize="10" guides="1" tooltips="1" connect="1" arrows="1" fold="1" page="1" pageScale="1" pageWidth="850" pageHeight="1100" math="0" shadow="1">
      <root>
        <mxCell id="0" />
        <mxCell id="1" parent="0" />
        <mxCell id="C_cRbSqMDxHAxImj26DF-7" value="Apache Kafka" style="rounded=1;whiteSpace=wrap;html=1;arcSize=6;align=left;horizontal=1;verticalAlign=top;spacingLeft=10;fillColor=#f5f5f5;strokeColor=#666666;fontColor=#333333;shadow=0;" parent="1" vertex="1">
          <mxGeometry x="319" y="280" width="180" height="160" as="geometry" />
        </mxCell>
        <mxCell id="C_cRbSqMDxHAxImj26DF-30" style="edgeStyle=none;rounded=0;orthogonalLoop=1;jettySize=auto;html=1;exitX=0.625;exitY=1;exitDx=0;exitDy=0;exitPerimeter=0;entryX=0.625;entryY=0;entryDx=0;entryDy=0;" parent="1" source="C_cRbSqMDxHAxImj26DF-10" target="C_cRbSqMDxHAxImj26DF-11" edge="1">
          <mxGeometry relative="1" as="geometry" />
        </mxCell>
        <mxCell id="C_cRbSqMDxHAxImj26DF-10" value="Identity&lt;br&gt;Server" style="whiteSpace=wrap;html=1;shape=mxgraph.basic.pentagon;fillColor=#f8cecc;strokeColor=#b85450;shadow=0;" parent="1" vertex="1">
          <mxGeometry x="182" y="214" width="80" height="70" as="geometry" />
        </mxCell>
        <mxCell id="C_cRbSqMDxHAxImj26DF-18" style="edgeStyle=entityRelationEdgeStyle;rounded=1;orthogonalLoop=1;jettySize=auto;html=1;exitX=1;exitY=0.25;exitDx=0;exitDy=0;entryX=0.5;entryY=1;entryDx=0;entryDy=0;entryPerimeter=0;" parent="1" source="C_cRbSqMDxHAxImj26DF-11" target="WxNTJWprR17-Nj9OPOWe-1" edge="1">
          <mxGeometry relative="1" as="geometry" />
        </mxCell>
        <mxCell id="C_cRbSqMDxHAxImj26DF-29" style="edgeStyle=none;rounded=0;orthogonalLoop=1;jettySize=auto;html=1;exitX=0.375;exitY=0;exitDx=0;exitDy=0;entryX=0.375;entryY=1;entryDx=0;entryDy=0;entryPerimeter=0;" parent="1" source="C_cRbSqMDxHAxImj26DF-11" target="C_cRbSqMDxHAxImj26DF-10" edge="1">
          <mxGeometry relative="1" as="geometry">
            <mxPoint x="213" y="294" as="targetPoint" />
          </mxGeometry>
        </mxCell>
        <mxCell id="C_cRbSqMDxHAxImj26DF-11" value="REST API&lt;br&gt;(JSON)" style="shape=hexagon;perimeter=hexagonPerimeter2;whiteSpace=wrap;html=1;fixedSize=1;fillColor=#d5e8d4;strokeColor=#82b366;shadow=0;rounded=0;" parent="1" vertex="1">
          <mxGeometry x="182" y="329" width="80" height="70" as="geometry" />
        </mxCell>
        <mxCell id="C_cRbSqMDxHAxImj26DF-25" style="edgeStyle=entityRelationEdgeStyle;rounded=1;orthogonalLoop=1;jettySize=auto;html=1;exitX=0;exitY=0.25;exitDx=0;exitDy=0;entryX=0.5;entryY=0;entryDx=0;entryDy=0;entryPerimeter=0;" parent="1" source="C_cRbSqMDxHAxImj26DF-15" target="WxNTJWprR17-Nj9OPOWe-1" edge="1">
          <mxGeometry relative="1" as="geometry" />
        </mxCell>
        <mxCell id="C_cRbSqMDxHAxImj26DF-41" style="edgeStyle=entityRelationEdgeStyle;rounded=1;orthogonalLoop=1;jettySize=auto;html=1;exitX=1;exitY=0.25;exitDx=0;exitDy=0;entryX=0;entryY=0.558;entryDx=0;entryDy=0;entryPerimeter=0;" parent="1" source="C_cRbSqMDxHAxImj26DF-15" target="C_cRbSqMDxHAxImj26DF-40" edge="1">
          <mxGeometry relative="1" as="geometry" />
        </mxCell>
        <mxCell id="C_cRbSqMDxHAxImj26DF-46" style="edgeStyle=none;rounded=0;orthogonalLoop=1;jettySize=auto;html=1;exitX=0.625;exitY=0;exitDx=0;exitDy=0;entryX=0.625;entryY=1;entryDx=0;entryDy=0;" parent="1" source="C_cRbSqMDxHAxImj26DF-15" target="C_cRbSqMDxHAxImj26DF-44" edge="1">
          <mxGeometry relative="1" as="geometry" />
        </mxCell>
        <mxCell id="TbZ-WIvedwMORT8tZswz-3" style="edgeStyle=none;rounded=1;orthogonalLoop=1;jettySize=auto;html=1;exitX=0.625;exitY=1;exitDx=0;exitDy=0;entryX=0.625;entryY=0;entryDx=0;entryDy=0;" edge="1" parent="1" source="C_cRbSqMDxHAxImj26DF-15" target="TbZ-WIvedwMORT8tZswz-2">
          <mxGeometry relative="1" as="geometry" />
        </mxCell>
        <mxCell id="C_cRbSqMDxHAxImj26DF-15" value="Primary Service" style="shape=hexagon;perimeter=hexagonPerimeter2;whiteSpace=wrap;html=1;fixedSize=1;fillColor=#fff2cc;strokeColor=#d6b656;shadow=0;" parent="1" vertex="1">
          <mxGeometry x="550" y="329" width="80" height="70" as="geometry" />
        </mxCell>
        <mxCell id="C_cRbSqMDxHAxImj26DF-24" style="edgeStyle=entityRelationEdgeStyle;rounded=1;orthogonalLoop=1;jettySize=auto;html=1;exitX=0.5;exitY=1;exitDx=0;exitDy=0;entryX=0;entryY=0.75;entryDx=0;entryDy=0;exitPerimeter=0;" parent="1" source="C_cRbSqMDxHAxImj26DF-5" target="C_cRbSqMDxHAxImj26DF-15" edge="1">
          <mxGeometry relative="1" as="geometry" />
        </mxCell>
        <mxCell id="C_cRbSqMDxHAxImj26DF-32" style="edgeStyle=entityRelationEdgeStyle;rounded=1;orthogonalLoop=1;jettySize=auto;html=1;exitX=0.5;exitY=0;exitDx=0;exitDy=0;exitPerimeter=0;entryX=1;entryY=0.75;entryDx=0;entryDy=0;" parent="1" source="C_cRbSqMDxHAxImj26DF-5" target="C_cRbSqMDxHAxImj26DF-11" edge="1">
          <mxGeometry relative="1" as="geometry" />
        </mxCell>
        <mxCell id="C_cRbSqMDxHAxImj26DF-42" style="edgeStyle=entityRelationEdgeStyle;rounded=1;orthogonalLoop=1;jettySize=auto;html=1;exitX=0;exitY=0.877;exitDx=0;exitDy=0;entryX=1;entryY=0.75;entryDx=0;entryDy=0;exitPerimeter=0;" parent="1" source="C_cRbSqMDxHAxImj26DF-40" target="C_cRbSqMDxHAxImj26DF-15" edge="1">
          <mxGeometry relative="1" as="geometry" />
        </mxCell>
        <mxCell id="C_cRbSqMDxHAxImj26DF-49" style="edgeStyle=entityRelationEdgeStyle;rounded=1;orthogonalLoop=1;jettySize=auto;html=1;exitX=0;exitY=0.369;exitDx=0;exitDy=0;entryX=1;entryY=0.75;entryDx=0;entryDy=0;exitPerimeter=0;" parent="1" source="C_cRbSqMDxHAxImj26DF-40" target="C_cRbSqMDxHAxImj26DF-44" edge="1">
          <mxGeometry relative="1" as="geometry" />
        </mxCell>
        <mxCell id="C_cRbSqMDxHAxImj26DF-40" value="Back-end core systems and&lt;br&gt;3rd party service providers" style="rounded=1;whiteSpace=wrap;html=1;arcSize=6;align=center;horizontal=1;verticalAlign=middle;spacingLeft=0;fillColor=#f5f5f5;strokeColor=#666666;fontColor=#333333;shadow=0;" parent="1" vertex="1">
          <mxGeometry x="690" y="194" width="100" height="236" as="geometry" />
        </mxCell>
        <mxCell id="C_cRbSqMDxHAxImj26DF-47" style="edgeStyle=none;rounded=0;orthogonalLoop=1;jettySize=auto;html=1;exitX=0.375;exitY=1;exitDx=0;exitDy=0;entryX=0.375;entryY=0;entryDx=0;entryDy=0;" parent="1" source="C_cRbSqMDxHAxImj26DF-44" target="C_cRbSqMDxHAxImj26DF-15" edge="1">
          <mxGeometry relative="1" as="geometry" />
        </mxCell>
        <mxCell id="C_cRbSqMDxHAxImj26DF-48" style="edgeStyle=entityRelationEdgeStyle;rounded=1;orthogonalLoop=1;jettySize=auto;html=1;exitX=1;exitY=0.25;exitDx=0;exitDy=0;entryX=-0.007;entryY=0.079;entryDx=0;entryDy=0;entryPerimeter=0;" parent="1" source="C_cRbSqMDxHAxImj26DF-44" target="C_cRbSqMDxHAxImj26DF-40" edge="1">
          <mxGeometry relative="1" as="geometry" />
        </mxCell>
        <mxCell id="C_cRbSqMDxHAxImj26DF-44" value="Secondary Service" style="shape=hexagon;perimeter=hexagonPerimeter2;whiteSpace=wrap;html=1;fixedSize=1;fillColor=#ffcc99;strokeColor=#36393d;shadow=0;" parent="1" vertex="1">
          <mxGeometry x="550" y="214" width="80" height="70" as="geometry" />
        </mxCell>
        <mxCell id="WxNTJWprR17-Nj9OPOWe-1" value="" style="shape=cylinder3;whiteSpace=wrap;html=1;boundedLbl=1;backgroundOutline=1;size=15;direction=south;" parent="1" vertex="1">
          <mxGeometry x="329" y="308" width="160" height="50" as="geometry" />
        </mxCell>
        <mxCell id="C_cRbSqMDxHAxImj26DF-2" value="Send Topic" style="html=1;shadow=0;dashed=0;align=center;verticalAlign=middle;shape=mxgraph.arrows2.arrow;dy=0.6;dx=21;notch=0;fillColor=#ffe6cc;strokeColor=#d79b00;" parent="1" vertex="1">
          <mxGeometry x="344" y="310" width="110" height="46" as="geometry" />
        </mxCell>
        <mxCell id="C_cRbSqMDxHAxImj26DF-5" value="" style="shape=cylinder3;whiteSpace=wrap;html=1;boundedLbl=1;backgroundOutline=1;size=15;direction=north;" parent="1" vertex="1">
          <mxGeometry x="329" y="370" width="160" height="50" as="geometry" />
        </mxCell>
        <mxCell id="C_cRbSqMDxHAxImj26DF-50" value="Reply Topic" style="html=1;shadow=0;dashed=0;align=center;verticalAlign=middle;shape=mxgraph.arrows2.arrow;dy=0.6;dx=21;notch=0;fillColor=#e1d5e7;strokeColor=#9673a6;direction=west;" parent="1" vertex="1">
          <mxGeometry x="365" y="372" width="110" height="46" as="geometry" />
        </mxCell>
        <mxCell id="C_cRbSqMDxHAxImj26DF-52" value="" style="endArrow=none;dashed=1;html=1;dashPattern=1 3;strokeWidth=2;" parent="1" edge="1">
          <mxGeometry width="50" height="50" relative="1" as="geometry">
            <mxPoint x="289" y="520" as="sourcePoint" />
            <mxPoint x="289" y="160" as="targetPoint" />
          </mxGeometry>
        </mxCell>
        <mxCell id="C_cRbSqMDxHAxImj26DF-53" value="" style="endArrow=none;dashed=1;html=1;dashPattern=1 3;strokeWidth=2;" parent="1" edge="1">
          <mxGeometry width="50" height="50" relative="1" as="geometry">
            <mxPoint x="529" y="520" as="sourcePoint" />
            <mxPoint x="529" y="160" as="targetPoint" />
          </mxGeometry>
        </mxCell>
        <mxCell id="C_cRbSqMDxHAxImj26DF-54" value="" style="endArrow=none;dashed=1;html=1;dashPattern=1 3;strokeWidth=2;" parent="1" edge="1">
          <mxGeometry width="50" height="50" relative="1" as="geometry">
            <mxPoint x="162" y="520" as="sourcePoint" />
            <mxPoint x="162" y="160" as="targetPoint" />
          </mxGeometry>
        </mxCell>
        <mxCell id="C_cRbSqMDxHAxImj26DF-55" value="" style="endArrow=none;dashed=1;html=1;dashPattern=1 3;strokeWidth=2;" parent="1" edge="1">
          <mxGeometry width="50" height="50" relative="1" as="geometry">
            <mxPoint x="659" y="520" as="sourcePoint" />
            <mxPoint x="659" y="160" as="targetPoint" />
          </mxGeometry>
        </mxCell>
        <mxCell id="hbWe6T0AyFxeRR88kbEK-1" value="Text" style="text;html=1;resizable=0;autosize=1;align=center;verticalAlign=middle;points=[];fillColor=none;strokeColor=none;rounded=0;shadow=0;glass=0;sketch=0;" vertex="1" parent="1">
          <mxGeometry x="400" y="370" width="40" height="20" as="geometry" />
        </mxCell>
        <mxCell id="hbWe6T0AyFxeRR88kbEK-2" value="Interface and&lt;br&gt;Security" style="text;html=1;resizable=0;autosize=1;align=center;verticalAlign=middle;points=[];fillColor=none;strokeColor=none;rounded=0;shadow=0;glass=0;sketch=0;fontStyle=1" vertex="1" parent="1">
          <mxGeometry x="177" y="164" width="90" height="30" as="geometry" />
        </mxCell>
        <mxCell id="hbWe6T0AyFxeRR88kbEK-3" value="Routing and&lt;br&gt;Store and forward" style="text;html=1;resizable=0;autosize=1;align=center;verticalAlign=middle;points=[];fillColor=none;strokeColor=none;rounded=0;shadow=0;glass=0;sketch=0;fontStyle=1" vertex="1" parent="1">
          <mxGeometry x="339" y="164" width="120" height="30" as="geometry" />
        </mxCell>
        <mxCell id="hbWe6T0AyFxeRR88kbEK-4" value="Orchestration,&amp;nbsp;&lt;br&gt;Processing and&lt;br&gt;Business Rules" style="text;html=1;resizable=0;autosize=1;align=center;verticalAlign=middle;points=[];fillColor=none;strokeColor=none;rounded=0;shadow=0;glass=0;sketch=0;fontStyle=1" vertex="1" parent="1">
          <mxGeometry x="543" y="153" width="100" height="50" as="geometry" />
        </mxCell>
        <mxCell id="TbZ-WIvedwMORT8tZswz-1" value="" style="rounded=1;whiteSpace=wrap;html=1;arcSize=6;align=center;horizontal=1;verticalAlign=middle;spacingLeft=0;fillColor=#f5f5f5;strokeColor=#666666;fontColor=#333333;shadow=0;" vertex="1" parent="1">
          <mxGeometry x="30" y="190" width="100" height="250" as="geometry" />
        </mxCell>
        <mxCell id="TbZ-WIvedwMORT8tZswz-4" style="edgeStyle=none;rounded=1;orthogonalLoop=1;jettySize=auto;html=1;exitX=0.375;exitY=0;exitDx=0;exitDy=0;entryX=0.375;entryY=1;entryDx=0;entryDy=0;" edge="1" parent="1" source="TbZ-WIvedwMORT8tZswz-2" target="C_cRbSqMDxHAxImj26DF-15">
          <mxGeometry relative="1" as="geometry" />
        </mxCell>
        <mxCell id="TbZ-WIvedwMORT8tZswz-2" value="Business Rules&lt;br&gt;Engine" style="shape=hexagon;perimeter=hexagonPerimeter2;whiteSpace=wrap;html=1;fixedSize=1;fillColor=#dae8fc;strokeColor=#6c8ebf;shadow=0;" vertex="1" parent="1">
          <mxGeometry x="550" y="444" width="80" height="70" as="geometry" />
        </mxCell>
        <mxCell id="TbZ-WIvedwMORT8tZswz-6" style="edgeStyle=none;rounded=1;orthogonalLoop=1;jettySize=auto;html=1;exitX=0;exitY=0.5;exitDx=0;exitDy=0;exitPerimeter=0;entryX=1;entryY=0.5;entryDx=0;entryDy=0;" edge="1" parent="1" source="TbZ-WIvedwMORT8tZswz-5" target="TbZ-WIvedwMORT8tZswz-2">
          <mxGeometry relative="1" as="geometry" />
        </mxCell>
        <mxCell id="TbZ-WIvedwMORT8tZswz-5" value="Rules&lt;br&gt;Repository" style="shape=cylinder3;whiteSpace=wrap;html=1;boundedLbl=1;backgroundOutline=1;size=15;rounded=0;shadow=0;glass=0;sketch=0;align=center;fillColor=#cce5ff;strokeColor=#36393d;" vertex="1" parent="1">
          <mxGeometry x="705" y="444.5" width="70" height="69" as="geometry" />
        </mxCell>
      </root>
    </mxGraphModel>
  </diagram>
  <diagram id="bks5L26HKE-k1fQfU1dw" name="API Taximony">
    <mxGraphModel dx="1422" dy="747" grid="1" gridSize="10" guides="1" tooltips="1" connect="1" arrows="1" fold="1" page="1" pageScale="1" pageWidth="850" pageHeight="1100" math="0" shadow="0">
      <root>
        <mxCell id="KDj3-dI2atrqD0VUEykW-0" />
        <mxCell id="KDj3-dI2atrqD0VUEykW-1" parent="KDj3-dI2atrqD0VUEykW-0" />
      </root>
    </mxGraphModel>
  </diagram>
  <diagram id="DLklZll1RrMAdJVNoJ-Z" name="Service Architecture">
    <mxGraphModel dx="1422" dy="747" grid="1" gridSize="10" guides="1" tooltips="1" connect="1" arrows="1" fold="1" page="1" pageScale="1" pageWidth="850" pageHeight="1100" math="0" shadow="0">
      <root>
        <mxCell id="2RgEpZF4Bu0iuSjaLuDr-0" />
        <mxCell id="2RgEpZF4Bu0iuSjaLuDr-1" parent="2RgEpZF4Bu0iuSjaLuDr-0" />
      </root>
    </mxGraphModel>
  </diagram>
  <diagram id="CZvpq8NAZg0RmXci1gMy" name="Routing">
    <mxGraphModel dx="1422" dy="747" grid="1" gridSize="10" guides="1" tooltips="1" connect="1" arrows="1" fold="1" page="1" pageScale="1" pageWidth="850" pageHeight="1100" math="0" shadow="0">
      <root>
        <mxCell id="G3ryBX_KyhCmWEYgpzQC-0" />
        <mxCell id="G3ryBX_KyhCmWEYgpzQC-1" parent="G3ryBX_KyhCmWEYgpzQC-0" />
      </root>
    </mxGraphModel>
  </diagram>
  <diagram id="MVzjJrDizEsM3GAnMwnK" name="Security">
    <mxGraphModel dx="1422" dy="747" grid="1" gridSize="10" guides="1" tooltips="1" connect="1" arrows="1" fold="1" page="1" pageScale="1" pageWidth="850" pageHeight="1100" math="0" shadow="0">
      <root>
        <mxCell id="5NdtvT1GrKyCJS1PZCA1-0" />
        <mxCell id="5NdtvT1GrKyCJS1PZCA1-1" parent="5NdtvT1GrKyCJS1PZCA1-0" />
      </root>
    </mxGraphModel>
  </diagram>
  <diagram id="tf8Omqg6OCbzJAobc_yH" name="High Availability">
    <mxGraphModel dx="1422" dy="747" grid="1" gridSize="10" guides="1" tooltips="1" connect="1" arrows="1" fold="1" page="1" pageScale="1" pageWidth="850" pageHeight="1100" math="0" shadow="0">
      <root>
        <mxCell id="vJmmY5wJusAbRFoaPvwK-0" />
        <mxCell id="vJmmY5wJusAbRFoaPvwK-1" parent="vJmmY5wJusAbRFoaPvwK-0" />
      </root>
    </mxGraphModel>
  </diagram>
  <diagram id="QAz4YGs-E5oAKpSlRSWs" name="Scaling">
    <mxGraphModel dx="1422" dy="747" grid="1" gridSize="10" guides="1" tooltips="1" connect="1" arrows="1" fold="1" page="1" pageScale="1" pageWidth="850" pageHeight="1100" math="0" shadow="0">
      <root>
        <mxCell id="HLwPiFru-nvVzO-e49nr-0" />
        <mxCell id="HLwPiFru-nvVzO-e49nr-1" parent="HLwPiFru-nvVzO-e49nr-0" />
      </root>
    </mxGraphModel>
  </diagram>
  <diagram id="GYpoIoCYJgAoOVvV7Te_" name="Automation">
    <mxGraphModel dx="1422" dy="747" grid="1" gridSize="10" guides="1" tooltips="1" connect="1" arrows="1" fold="1" page="1" pageScale="1" pageWidth="850" pageHeight="1100" math="0" shadow="0">
      <root>
        <mxCell id="czwh2poEwM2hsxff0mdp-0" />
        <mxCell id="czwh2poEwM2hsxff0mdp-1" parent="czwh2poEwM2hsxff0mdp-0" />
      </root>
    </mxGraphModel>
  </diagram>
</mxfile>
